<mxfile host="app.diagrams.net" modified="2024-03-24T12:47:01.160Z" agent="Mozilla/5.0 (Windows NT 10.0; Win64; x64) AppleWebKit/537.36 (KHTML, like Gecko) Chrome/122.0.0.0 Safari/537.36" etag="9SLZ0mTtJmOhH4kgn7tZ" version="24.0.0" type="device">
  <diagram name="第 1 页" id="F4mGWRmZtx0tw0BR747c">
    <mxGraphModel dx="1217" dy="935" grid="1" gridSize="10" guides="1" tooltips="1" connect="1" arrows="1" fold="1" page="1" pageScale="1" pageWidth="827" pageHeight="1169" math="0" shadow="0">
      <root>
        <mxCell id="0" />
        <mxCell id="1" parent="0" />
        <mxCell id="u4D0hofvxtstKlqj3fkF-1" value="dept" style="rounded=0;whiteSpace=wrap;html=1;" parent="1" vertex="1">
          <mxGeometry x="184" y="350" width="120" height="60" as="geometry" />
        </mxCell>
        <mxCell id="u4D0hofvxtstKlqj3fkF-2" value="bonus" style="rounded=0;whiteSpace=wrap;html=1;" parent="1" vertex="1">
          <mxGeometry x="340" y="320" width="120" height="60" as="geometry" />
        </mxCell>
        <mxCell id="u4D0hofvxtstKlqj3fkF-5" value="dependents" style="rounded=0;whiteSpace=wrap;html=1;" parent="1" vertex="1">
          <mxGeometry x="554" y="835" width="120" height="60" as="geometry" />
        </mxCell>
        <mxCell id="u4D0hofvxtstKlqj3fkF-6" value="emp" style="rounded=0;whiteSpace=wrap;html=1;" parent="1" vertex="1">
          <mxGeometry x="164" y="688" width="120" height="60" as="geometry" />
        </mxCell>
        <mxCell id="u4D0hofvxtstKlqj3fkF-7" value="salgrade" style="rounded=0;whiteSpace=wrap;html=1;" parent="1" vertex="1">
          <mxGeometry x="670" y="510" width="120" height="50" as="geometry" />
        </mxCell>
        <mxCell id="u4D0hofvxtstKlqj3fkF-8" value="&lt;u&gt;DEPTNO&lt;/u&gt;" style="ellipse;whiteSpace=wrap;html=1;" parent="1" vertex="1">
          <mxGeometry x="44" y="270" width="120" height="40" as="geometry" />
        </mxCell>
        <mxCell id="u4D0hofvxtstKlqj3fkF-9" value="DNAME " style="ellipse;whiteSpace=wrap;html=1;" parent="1" vertex="1">
          <mxGeometry x="44" y="454.5" width="120" height="40" as="geometry" />
        </mxCell>
        <mxCell id="u4D0hofvxtstKlqj3fkF-10" value="LOC" style="ellipse;whiteSpace=wrap;html=1;" parent="1" vertex="1">
          <mxGeometry x="14" y="360" width="120" height="40" as="geometry" />
        </mxCell>
        <mxCell id="u4D0hofvxtstKlqj3fkF-13" value="" style="endArrow=none;html=1;rounded=0;entryX=1;entryY=1;entryDx=0;entryDy=0;" parent="1" target="u4D0hofvxtstKlqj3fkF-8" edge="1">
          <mxGeometry width="50" height="50" relative="1" as="geometry">
            <mxPoint x="214" y="350" as="sourcePoint" />
            <mxPoint x="264" y="300" as="targetPoint" />
          </mxGeometry>
        </mxCell>
        <mxCell id="u4D0hofvxtstKlqj3fkF-14" value="" style="endArrow=none;html=1;rounded=0;entryX=1;entryY=0.5;entryDx=0;entryDy=0;exitX=0;exitY=0.5;exitDx=0;exitDy=0;" parent="1" source="u4D0hofvxtstKlqj3fkF-1" target="u4D0hofvxtstKlqj3fkF-10" edge="1">
          <mxGeometry width="50" height="50" relative="1" as="geometry">
            <mxPoint x="224" y="360" as="sourcePoint" />
            <mxPoint x="156" y="314" as="targetPoint" />
          </mxGeometry>
        </mxCell>
        <mxCell id="u4D0hofvxtstKlqj3fkF-15" value="" style="endArrow=none;html=1;rounded=0;entryX=1;entryY=0;entryDx=0;entryDy=0;exitX=0.25;exitY=1;exitDx=0;exitDy=0;" parent="1" source="u4D0hofvxtstKlqj3fkF-1" target="u4D0hofvxtstKlqj3fkF-9" edge="1">
          <mxGeometry width="50" height="50" relative="1" as="geometry">
            <mxPoint x="194" y="390" as="sourcePoint" />
            <mxPoint x="144" y="390" as="targetPoint" />
          </mxGeometry>
        </mxCell>
        <mxCell id="u4D0hofvxtstKlqj3fkF-16" value="ENAME" style="ellipse;whiteSpace=wrap;html=1;" parent="1" vertex="1">
          <mxGeometry x="24" y="730" width="120" height="40" as="geometry" />
        </mxCell>
        <mxCell id="u4D0hofvxtstKlqj3fkF-17" value="&lt;u&gt;EMPNO&lt;/u&gt;" style="ellipse;whiteSpace=wrap;html=1;" parent="1" vertex="1">
          <mxGeometry x="34" y="630" width="120" height="40" as="geometry" />
        </mxCell>
        <mxCell id="u4D0hofvxtstKlqj3fkF-19" value="JOB" style="ellipse;whiteSpace=wrap;html=1;" parent="1" vertex="1">
          <mxGeometry x="34" y="784.5" width="120" height="40" as="geometry" />
        </mxCell>
        <mxCell id="u4D0hofvxtstKlqj3fkF-20" value="EFIRST" style="ellipse;whiteSpace=wrap;html=1;" parent="1" vertex="1">
          <mxGeometry x="14" y="680" width="120" height="40" as="geometry" />
        </mxCell>
        <mxCell id="u4D0hofvxtstKlqj3fkF-21" value="MGR" style="ellipse;whiteSpace=wrap;html=1;" parent="1" vertex="1">
          <mxGeometry x="94" y="590" width="120" height="40" as="geometry" />
        </mxCell>
        <mxCell id="u4D0hofvxtstKlqj3fkF-22" value="HIREDATE" style="ellipse;whiteSpace=wrap;html=1;" parent="1" vertex="1">
          <mxGeometry x="340" y="610" width="120" height="40" as="geometry" />
        </mxCell>
        <mxCell id="u4D0hofvxtstKlqj3fkF-23" value="COMM" style="ellipse;whiteSpace=wrap;html=1;" parent="1" vertex="1">
          <mxGeometry x="154" y="810" width="120" height="40" as="geometry" />
        </mxCell>
        <mxCell id="u4D0hofvxtstKlqj3fkF-24" value="SAL" style="ellipse;whiteSpace=wrap;html=1;" parent="1" vertex="1">
          <mxGeometry x="370" y="660" width="120" height="40" as="geometry" />
        </mxCell>
        <mxCell id="u4D0hofvxtstKlqj3fkF-25" value="DEPTNO" style="ellipse;whiteSpace=wrap;html=1;" parent="1" vertex="1">
          <mxGeometry x="274" y="850" width="120" height="40" as="geometry" />
        </mxCell>
        <mxCell id="u4D0hofvxtstKlqj3fkF-27" value="" style="endArrow=none;html=1;rounded=0;entryX=1;entryY=1;entryDx=0;entryDy=0;exitX=0.25;exitY=0;exitDx=0;exitDy=0;" parent="1" source="u4D0hofvxtstKlqj3fkF-6" target="u4D0hofvxtstKlqj3fkF-17" edge="1">
          <mxGeometry width="50" height="50" relative="1" as="geometry">
            <mxPoint x="222" y="590" as="sourcePoint" />
            <mxPoint x="154" y="640" as="targetPoint" />
          </mxGeometry>
        </mxCell>
        <mxCell id="u4D0hofvxtstKlqj3fkF-28" value="" style="endArrow=none;html=1;rounded=0;entryX=1;entryY=1;entryDx=0;entryDy=0;exitX=0.5;exitY=0;exitDx=0;exitDy=0;" parent="1" source="u4D0hofvxtstKlqj3fkF-6" target="u4D0hofvxtstKlqj3fkF-21" edge="1">
          <mxGeometry width="50" height="50" relative="1" as="geometry">
            <mxPoint x="264" y="675" as="sourcePoint" />
            <mxPoint x="224" y="635" as="targetPoint" />
          </mxGeometry>
        </mxCell>
        <mxCell id="u4D0hofvxtstKlqj3fkF-29" value="" style="endArrow=none;html=1;rounded=0;entryX=0;entryY=0.5;entryDx=0;entryDy=0;exitX=1;exitY=0;exitDx=0;exitDy=0;" parent="1" source="u4D0hofvxtstKlqj3fkF-6" target="u4D0hofvxtstKlqj3fkF-22" edge="1">
          <mxGeometry width="50" height="50" relative="1" as="geometry">
            <mxPoint x="344" y="685" as="sourcePoint" />
            <mxPoint x="344" y="640" as="targetPoint" />
          </mxGeometry>
        </mxCell>
        <mxCell id="u4D0hofvxtstKlqj3fkF-30" value="" style="endArrow=none;html=1;rounded=0;entryX=0;entryY=0.5;entryDx=0;entryDy=0;exitX=1;exitY=0.25;exitDx=0;exitDy=0;" parent="1" source="u4D0hofvxtstKlqj3fkF-6" target="u4D0hofvxtstKlqj3fkF-24" edge="1">
          <mxGeometry width="50" height="50" relative="1" as="geometry">
            <mxPoint x="244" y="700" as="sourcePoint" />
            <mxPoint x="244" y="655" as="targetPoint" />
          </mxGeometry>
        </mxCell>
        <mxCell id="u4D0hofvxtstKlqj3fkF-31" value="" style="endArrow=none;html=1;rounded=0;entryX=0;entryY=0;entryDx=0;entryDy=0;exitX=0.75;exitY=1;exitDx=0;exitDy=0;" parent="1" source="u4D0hofvxtstKlqj3fkF-6" target="u4D0hofvxtstKlqj3fkF-25" edge="1">
          <mxGeometry width="50" height="50" relative="1" as="geometry">
            <mxPoint x="254" y="710" as="sourcePoint" />
            <mxPoint x="254" y="665" as="targetPoint" />
          </mxGeometry>
        </mxCell>
        <mxCell id="u4D0hofvxtstKlqj3fkF-32" value="" style="endArrow=none;html=1;rounded=0;entryX=0.5;entryY=1;entryDx=0;entryDy=0;exitX=0.45;exitY=-0.05;exitDx=0;exitDy=0;exitPerimeter=0;" parent="1" source="u4D0hofvxtstKlqj3fkF-23" target="u4D0hofvxtstKlqj3fkF-6" edge="1">
          <mxGeometry width="50" height="50" relative="1" as="geometry">
            <mxPoint x="264" y="720" as="sourcePoint" />
            <mxPoint x="264" y="675" as="targetPoint" />
          </mxGeometry>
        </mxCell>
        <mxCell id="u4D0hofvxtstKlqj3fkF-33" value="" style="endArrow=none;html=1;rounded=0;entryX=1;entryY=0;entryDx=0;entryDy=0;exitX=0.25;exitY=1;exitDx=0;exitDy=0;" parent="1" source="u4D0hofvxtstKlqj3fkF-6" target="u4D0hofvxtstKlqj3fkF-19" edge="1">
          <mxGeometry width="50" height="50" relative="1" as="geometry">
            <mxPoint x="274" y="730" as="sourcePoint" />
            <mxPoint x="274" y="685" as="targetPoint" />
          </mxGeometry>
        </mxCell>
        <mxCell id="u4D0hofvxtstKlqj3fkF-34" value="" style="endArrow=none;html=1;rounded=0;entryX=1;entryY=0;entryDx=0;entryDy=0;exitX=0.5;exitY=0;exitDx=0;exitDy=0;" parent="1" edge="1">
          <mxGeometry width="50" height="50" relative="1" as="geometry">
            <mxPoint x="284" y="740" as="sourcePoint" />
            <mxPoint x="284" y="695" as="targetPoint" />
          </mxGeometry>
        </mxCell>
        <mxCell id="u4D0hofvxtstKlqj3fkF-35" value="" style="endArrow=none;html=1;rounded=0;entryX=1;entryY=0.5;entryDx=0;entryDy=0;exitX=0;exitY=0.75;exitDx=0;exitDy=0;" parent="1" source="u4D0hofvxtstKlqj3fkF-6" target="u4D0hofvxtstKlqj3fkF-16" edge="1">
          <mxGeometry width="50" height="50" relative="1" as="geometry">
            <mxPoint x="294" y="750" as="sourcePoint" />
            <mxPoint x="294" y="705" as="targetPoint" />
          </mxGeometry>
        </mxCell>
        <mxCell id="u4D0hofvxtstKlqj3fkF-36" value="" style="endArrow=none;html=1;rounded=0;entryX=1;entryY=0.5;entryDx=0;entryDy=0;exitX=0;exitY=0.25;exitDx=0;exitDy=0;" parent="1" source="u4D0hofvxtstKlqj3fkF-6" target="u4D0hofvxtstKlqj3fkF-20" edge="1">
          <mxGeometry width="50" height="50" relative="1" as="geometry">
            <mxPoint x="304" y="760" as="sourcePoint" />
            <mxPoint x="304" y="715" as="targetPoint" />
          </mxGeometry>
        </mxCell>
        <mxCell id="u4D0hofvxtstKlqj3fkF-38" value="TEL" style="ellipse;whiteSpace=wrap;html=1;" parent="1" vertex="1">
          <mxGeometry x="263" y="550" width="120" height="40" as="geometry" />
        </mxCell>
        <mxCell id="u4D0hofvxtstKlqj3fkF-39" value="" style="endArrow=none;html=1;rounded=0;entryX=0.5;entryY=1;entryDx=0;entryDy=0;exitX=0.75;exitY=0;exitDx=0;exitDy=0;" parent="1" source="u4D0hofvxtstKlqj3fkF-6" target="u4D0hofvxtstKlqj3fkF-38" edge="1">
          <mxGeometry width="50" height="50" relative="1" as="geometry">
            <mxPoint x="294" y="690" as="sourcePoint" />
            <mxPoint x="354" y="670" as="targetPoint" />
          </mxGeometry>
        </mxCell>
        <mxCell id="u4D0hofvxtstKlqj3fkF-40" value="&lt;u&gt;DNO&lt;/u&gt;" style="ellipse;whiteSpace=wrap;html=1;" parent="1" vertex="1">
          <mxGeometry x="624" y="765" width="120" height="40" as="geometry" />
        </mxCell>
        <mxCell id="u4D0hofvxtstKlqj3fkF-41" value="DNAME" style="ellipse;whiteSpace=wrap;html=1;" parent="1" vertex="1">
          <mxGeometry x="694" y="819.5" width="120" height="40" as="geometry" />
        </mxCell>
        <mxCell id="u4D0hofvxtstKlqj3fkF-42" value="DFIRST" style="ellipse;whiteSpace=wrap;html=1;" parent="1" vertex="1">
          <mxGeometry x="694" y="875" width="120" height="40" as="geometry" />
        </mxCell>
        <mxCell id="u4D0hofvxtstKlqj3fkF-43" value="&lt;u&gt;EMPNO&lt;/u&gt;" style="ellipse;whiteSpace=wrap;html=1;" parent="1" vertex="1">
          <mxGeometry x="624" y="935" width="120" height="40" as="geometry" />
        </mxCell>
        <mxCell id="u4D0hofvxtstKlqj3fkF-44" value="COMM" style="ellipse;whiteSpace=wrap;html=1;" parent="1" vertex="1">
          <mxGeometry x="390" y="240" width="120" height="40" as="geometry" />
        </mxCell>
        <mxCell id="u4D0hofvxtstKlqj3fkF-45" value="ENAME" style="ellipse;whiteSpace=wrap;html=1;" parent="1" vertex="1">
          <mxGeometry x="480" y="357.25" width="120" height="40" as="geometry" />
        </mxCell>
        <mxCell id="u4D0hofvxtstKlqj3fkF-46" value="SAL" style="ellipse;whiteSpace=wrap;html=1;" parent="1" vertex="1">
          <mxGeometry x="390" y="410" width="120" height="40" as="geometry" />
        </mxCell>
        <mxCell id="u4D0hofvxtstKlqj3fkF-49" value="JOB" style="ellipse;whiteSpace=wrap;html=1;" parent="1" vertex="1">
          <mxGeometry x="480" y="302.75" width="120" height="40" as="geometry" />
        </mxCell>
        <mxCell id="u4D0hofvxtstKlqj3fkF-50" value="GRADE" style="ellipse;whiteSpace=wrap;html=1;" parent="1" vertex="1">
          <mxGeometry x="560" y="440" width="120" height="40" as="geometry" />
        </mxCell>
        <mxCell id="u4D0hofvxtstKlqj3fkF-51" value="HISAL" style="ellipse;whiteSpace=wrap;html=1;" parent="1" vertex="1">
          <mxGeometry x="560" y="590" width="120" height="40" as="geometry" />
        </mxCell>
        <mxCell id="u4D0hofvxtstKlqj3fkF-52" value=" LOSAL" style="ellipse;whiteSpace=wrap;html=1;" parent="1" vertex="1">
          <mxGeometry x="510" y="510" width="120" height="40" as="geometry" />
        </mxCell>
        <mxCell id="u4D0hofvxtstKlqj3fkF-54" value="" style="endArrow=none;html=1;rounded=0;entryX=0.5;entryY=1;entryDx=0;entryDy=0;exitX=0.75;exitY=0;exitDx=0;exitDy=0;" parent="1" source="u4D0hofvxtstKlqj3fkF-2" target="u4D0hofvxtstKlqj3fkF-44" edge="1">
          <mxGeometry width="50" height="50" relative="1" as="geometry">
            <mxPoint x="449.5" y="320" as="sourcePoint" />
            <mxPoint x="449.5" y="275" as="targetPoint" />
          </mxGeometry>
        </mxCell>
        <mxCell id="u4D0hofvxtstKlqj3fkF-55" value="" style="endArrow=none;html=1;rounded=0;entryX=0;entryY=0.5;entryDx=0;entryDy=0;exitX=1;exitY=0.25;exitDx=0;exitDy=0;" parent="1" source="u4D0hofvxtstKlqj3fkF-2" target="u4D0hofvxtstKlqj3fkF-49" edge="1">
          <mxGeometry width="50" height="50" relative="1" as="geometry">
            <mxPoint x="440" y="330" as="sourcePoint" />
            <mxPoint x="460" y="290" as="targetPoint" />
          </mxGeometry>
        </mxCell>
        <mxCell id="u4D0hofvxtstKlqj3fkF-56" value="" style="endArrow=none;html=1;rounded=0;entryX=0;entryY=0.5;entryDx=0;entryDy=0;exitX=1;exitY=0.75;exitDx=0;exitDy=0;" parent="1" source="u4D0hofvxtstKlqj3fkF-2" target="u4D0hofvxtstKlqj3fkF-45" edge="1">
          <mxGeometry width="50" height="50" relative="1" as="geometry">
            <mxPoint x="450" y="340" as="sourcePoint" />
            <mxPoint x="470" y="300" as="targetPoint" />
          </mxGeometry>
        </mxCell>
        <mxCell id="u4D0hofvxtstKlqj3fkF-57" value="" style="endArrow=none;html=1;rounded=0;entryX=0.75;entryY=1;entryDx=0;entryDy=0;exitX=0.5;exitY=0;exitDx=0;exitDy=0;" parent="1" source="u4D0hofvxtstKlqj3fkF-46" target="u4D0hofvxtstKlqj3fkF-2" edge="1">
          <mxGeometry width="50" height="50" relative="1" as="geometry">
            <mxPoint x="460" y="350" as="sourcePoint" />
            <mxPoint x="480" y="310" as="targetPoint" />
          </mxGeometry>
        </mxCell>
        <mxCell id="u4D0hofvxtstKlqj3fkF-58" value="" style="endArrow=none;html=1;rounded=0;entryX=0.25;entryY=0;entryDx=0;entryDy=0;exitX=1;exitY=1;exitDx=0;exitDy=0;" parent="1" source="u4D0hofvxtstKlqj3fkF-50" target="u4D0hofvxtstKlqj3fkF-7" edge="1">
          <mxGeometry width="50" height="50" relative="1" as="geometry">
            <mxPoint x="610" y="320" as="sourcePoint" />
            <mxPoint x="630" y="280" as="targetPoint" />
          </mxGeometry>
        </mxCell>
        <mxCell id="u4D0hofvxtstKlqj3fkF-59" value="" style="endArrow=none;html=1;rounded=0;entryX=1;entryY=0.5;entryDx=0;entryDy=0;exitX=0;exitY=0.5;exitDx=0;exitDy=0;" parent="1" source="u4D0hofvxtstKlqj3fkF-7" target="u4D0hofvxtstKlqj3fkF-52" edge="1">
          <mxGeometry width="50" height="50" relative="1" as="geometry">
            <mxPoint x="620" y="330" as="sourcePoint" />
            <mxPoint x="640" y="290" as="targetPoint" />
          </mxGeometry>
        </mxCell>
        <mxCell id="u4D0hofvxtstKlqj3fkF-60" value="" style="endArrow=none;html=1;rounded=0;entryX=1;entryY=0;entryDx=0;entryDy=0;exitX=0.25;exitY=1;exitDx=0;exitDy=0;" parent="1" source="u4D0hofvxtstKlqj3fkF-7" target="u4D0hofvxtstKlqj3fkF-51" edge="1">
          <mxGeometry width="50" height="50" relative="1" as="geometry">
            <mxPoint x="630" y="340" as="sourcePoint" />
            <mxPoint x="650" y="300" as="targetPoint" />
          </mxGeometry>
        </mxCell>
        <mxCell id="u4D0hofvxtstKlqj3fkF-61" value="" style="endArrow=none;html=1;rounded=0;exitX=1;exitY=0.5;exitDx=0;exitDy=0;entryX=0;entryY=0.5;entryDx=0;entryDy=0;" parent="1" source="u4D0hofvxtstKlqj3fkF-5" target="u4D0hofvxtstKlqj3fkF-41" edge="1">
          <mxGeometry width="50" height="50" relative="1" as="geometry">
            <mxPoint x="574" y="815" as="sourcePoint" />
            <mxPoint x="594" y="775" as="targetPoint" />
          </mxGeometry>
        </mxCell>
        <mxCell id="u4D0hofvxtstKlqj3fkF-62" value="" style="endArrow=none;html=1;rounded=0;entryX=0.5;entryY=1;entryDx=0;entryDy=0;exitX=0.75;exitY=0;exitDx=0;exitDy=0;" parent="1" source="u4D0hofvxtstKlqj3fkF-5" target="u4D0hofvxtstKlqj3fkF-40" edge="1">
          <mxGeometry width="50" height="50" relative="1" as="geometry">
            <mxPoint x="584" y="825" as="sourcePoint" />
            <mxPoint x="604" y="785" as="targetPoint" />
          </mxGeometry>
        </mxCell>
        <mxCell id="u4D0hofvxtstKlqj3fkF-63" value="" style="endArrow=none;html=1;rounded=0;entryX=0;entryY=0.5;entryDx=0;entryDy=0;exitX=1;exitY=0.75;exitDx=0;exitDy=0;" parent="1" source="u4D0hofvxtstKlqj3fkF-5" target="u4D0hofvxtstKlqj3fkF-42" edge="1">
          <mxGeometry width="50" height="50" relative="1" as="geometry">
            <mxPoint x="594" y="835" as="sourcePoint" />
            <mxPoint x="614" y="795" as="targetPoint" />
          </mxGeometry>
        </mxCell>
        <mxCell id="u4D0hofvxtstKlqj3fkF-64" value="" style="endArrow=none;html=1;rounded=0;entryX=0.5;entryY=0;entryDx=0;entryDy=0;exitX=0.75;exitY=1;exitDx=0;exitDy=0;" parent="1" source="u4D0hofvxtstKlqj3fkF-5" target="u4D0hofvxtstKlqj3fkF-43" edge="1">
          <mxGeometry width="50" height="50" relative="1" as="geometry">
            <mxPoint x="604" y="845" as="sourcePoint" />
            <mxPoint x="624" y="805" as="targetPoint" />
          </mxGeometry>
        </mxCell>
        <mxCell id="u4D0hofvxtstKlqj3fkF-69" value="" style="endArrow=none;html=1;rounded=0;entryX=0;entryY=0.5;entryDx=0;entryDy=0;exitX=1;exitY=0.5;exitDx=0;exitDy=0;" parent="1" source="u4D0hofvxtstKlqj3fkF-6" target="u4D0hofvxtstKlqj3fkF-5" edge="1">
          <mxGeometry width="50" height="50" relative="1" as="geometry">
            <mxPoint x="444" y="805" as="sourcePoint" />
            <mxPoint x="551" y="868" as="targetPoint" />
          </mxGeometry>
        </mxCell>
        <mxCell id="XBVmcAXfxQ_u34VBWvoY-1" value="&lt;font style=&quot;vertical-align: inherit;&quot;&gt;&lt;font style=&quot;vertical-align: inherit;&quot;&gt;&lt;font style=&quot;vertical-align: inherit;&quot;&gt;&lt;font style=&quot;vertical-align: inherit;&quot;&gt;&lt;font style=&quot;vertical-align: inherit;&quot;&gt;&lt;font style=&quot;vertical-align: inherit;&quot;&gt;1，n&lt;/font&gt;&lt;/font&gt;&lt;/font&gt;&lt;/font&gt;&lt;/font&gt;&lt;/font&gt;" style="text;html=1;align=center;verticalAlign=middle;whiteSpace=wrap;rounded=0;" vertex="1" parent="1">
          <mxGeometry x="413" y="754.5" width="60" height="30" as="geometry" />
        </mxCell>
        <mxCell id="XBVmcAXfxQ_u34VBWvoY-5" value="" style="endArrow=none;html=1;rounded=0;entryX=0.5;entryY=1;entryDx=0;entryDy=0;exitX=0.611;exitY=0.029;exitDx=0;exitDy=0;exitPerimeter=0;" edge="1" parent="1" source="u4D0hofvxtstKlqj3fkF-6" target="u4D0hofvxtstKlqj3fkF-1">
          <mxGeometry width="50" height="50" relative="1" as="geometry">
            <mxPoint x="390" y="710" as="sourcePoint" />
            <mxPoint x="440" y="660" as="targetPoint" />
          </mxGeometry>
        </mxCell>
        <mxCell id="XBVmcAXfxQ_u34VBWvoY-6" value="1，1" style="text;html=1;align=center;verticalAlign=middle;resizable=0;points=[];autosize=1;strokeColor=none;fillColor=none;" vertex="1" parent="1">
          <mxGeometry x="189" y="515" width="50" height="30" as="geometry" />
        </mxCell>
      </root>
    </mxGraphModel>
  </diagram>
</mxfile>
